<svg width="25" height="24" viewBox="0 0 25 24" fill="none" xmlns="http://www.w3.org/2000/svg">
<path fill-rule="evenodd" clip-rule="evenodd" d="M16.3333 3.24268H8.33325C5.57183 3.24268 3.33325 5.48126 3.33325 8.24268V16.2427C3.33325 19.0041 5.57183 21.2427 8.33325 21.2427H16.3333C19.0947 21.2427 21.3333 19.0041 21.3333 16.2427V8.24268C21.3333 5.48126 19.0947 3.24268 16.3333 3.24268ZM19.5833 16.2427C19.5778 18.0353 18.1259 19.4872 16.3333 19.4927H8.33325C6.5406 19.4872 5.08874 18.0353 5.08325 16.2427V8.24268C5.08874 6.45003 6.5406 4.99817 8.33325 4.99268H16.3333C18.1259 4.99817 19.5778 6.45003 19.5833 8.24268V16.2427ZM17.0833 8.49268C17.6356 8.49268 18.0833 8.04496 18.0833 7.49268C18.0833 6.9404 17.6356 6.49268 17.0833 6.49268C16.531 6.49268 16.0833 6.9404 16.0833 7.49268C16.0833 8.04496 16.531 8.49268 17.0833 8.49268ZM12.3333 7.74268C9.84797 7.74268 7.83325 9.7574 7.83325 12.2427C7.83325 14.728 9.84797 16.7427 12.3333 16.7427C14.8186 16.7427 16.8333 14.728 16.8333 12.2427C16.836 11.0484 16.3627 9.90225 15.5182 9.05776C14.6737 8.21327 13.5276 7.74002 12.3333 7.74268ZM9.58325 12.2427C9.58325 13.7615 10.8145 14.9927 12.3333 14.9927C13.8521 14.9927 15.0833 13.7615 15.0833 12.2427C15.0833 10.7239 13.8521 9.49268 12.3333 9.49268C10.8145 9.49268 9.58325 10.7239 9.58325 12.2427Z" fill="#111111"/>
</svg>
