<svg width="25" height="24" viewBox="0 0 25 24" fill="none" xmlns="http://www.w3.org/2000/svg">
<path fill-rule="evenodd" clip-rule="evenodd" d="M4.83325 3.24268C4.00482 3.24268 3.33325 3.91425 3.33325 4.74268V19.7427C3.33325 20.5711 4.00482 21.2427 4.83325 21.2427H19.8333C20.6617 21.2427 21.3333 20.5711 21.3333 19.7427V4.74268C21.3333 3.91425 20.6617 3.24268 19.8333 3.24268H4.83325ZM8.85401 7.2454C8.85964 8.20165 8.14386 8.79087 7.29448 8.78665C6.49432 8.78243 5.79682 8.1454 5.80104 7.24681C5.80526 6.40165 6.47323 5.72243 7.34089 5.74212C8.2212 5.76181 8.85964 6.40728 8.85401 7.2454ZM12.613 10.0044H10.093H10.0916V18.5643H12.755V18.3646C12.755 17.9847 12.7547 17.6047 12.7544 17.2246C12.7536 16.2108 12.7527 15.1959 12.7579 14.1824C12.7593 13.9363 12.7705 13.6804 12.8338 13.4455C13.0714 12.568 13.8604 12.0013 14.7407 12.1406C15.306 12.2291 15.68 12.5568 15.8375 13.0898C15.9346 13.423 15.9782 13.7816 15.9824 14.129C15.9938 15.1766 15.9922 16.2242 15.9906 17.2719C15.99 17.6417 15.9894 18.0117 15.9894 18.3815V18.5629H18.6613V18.3576C18.6613 17.9056 18.6611 17.4537 18.6608 17.0018C18.6603 15.8723 18.6597 14.7428 18.6627 13.6129C18.6641 13.1024 18.6093 12.599 18.4841 12.1054C18.2971 11.3713 17.9104 10.7638 17.2818 10.3251C16.836 10.0129 16.3466 9.81178 15.7996 9.78928C15.7373 9.78669 15.6745 9.7833 15.6114 9.77989C15.3317 9.76477 15.0474 9.74941 14.78 9.80334C14.015 9.95662 13.3429 10.3068 12.8352 10.9241C12.7762 10.9949 12.7185 11.0668 12.6324 11.1741L12.613 11.1984V10.0044ZM6.01489 18.5671H8.66567V10.01H6.01489V18.5671Z" fill="#111111"/>
</svg>
