<svg width="25" height="24" viewBox="0 0 25 24" fill="none" xmlns="http://www.w3.org/2000/svg">
<path d="M20.0074 3.99016C19.3475 3.33009 18.5524 3 17.6228 3H6.37258C5.44297 3 4.6479 3.33009 3.98772 3.99016C3.32765 4.65035 2.99756 5.44537 2.99756 6.37503V17.6251C2.99756 18.5547 3.32765 19.3498 3.98772 20.01C4.6479 20.6702 5.44297 21.0003 6.37258 21.0003H17.6227C18.5523 21.0003 19.3474 20.6702 20.0073 20.01C20.6675 19.3498 20.9976 18.5548 20.9976 17.6251V6.37503C20.9975 5.44537 20.6674 4.65022 20.0074 3.99016ZM8.10712 15.0118H5.93901C5.81399 15.0118 5.72024 14.9608 5.65781 14.8591C5.58749 14.7498 5.58749 14.6405 5.65781 14.5311L7.95479 10.4766V10.4649L6.48977 7.93335C6.42734 7.8006 6.42348 7.68723 6.47811 7.59361C6.54055 7.50774 6.64214 7.46464 6.7828 7.46464H8.93904C9.18113 7.46464 9.38427 7.59759 9.54837 7.86328C10.5327 9.58977 11.025 10.4569 11.025 10.4649L8.69309 14.5896C8.54467 14.8709 8.34937 15.0118 8.10712 15.0118ZM18.3374 4.96886L13.5444 13.4415V13.4532L16.5915 19.0312C16.6616 19.1484 16.6658 19.2579 16.603 19.3593C16.5485 19.453 16.4509 19.5001 16.3103 19.5001H14.154C13.904 19.5001 13.7008 19.3633 13.5446 19.09C11.5055 15.3478 10.4821 13.4688 10.4744 13.4532L15.2908 4.90984C15.4393 4.63627 15.6306 4.49962 15.8649 4.49962H18.0565C18.1891 4.49962 18.2826 4.54654 18.3377 4.64029C18.4002 4.7342 18.4002 4.84367 18.3374 4.96886Z" fill="black"/>
</svg>
