<svg width="25" height="24" viewBox="0 0 25 24" fill="none" xmlns="http://www.w3.org/2000/svg">
<path d="M21.9263 7.20301C21.8124 6.78041 21.5898 6.39501 21.2807 6.08518C20.9716 5.77534 20.5867 5.55187 20.1643 5.43701C18.5983 5.00701 12.3333 5.00001 12.3333 5.00001C12.3333 5.00001 6.06934 4.99301 4.50234 5.40401C4.08026 5.52415 3.69616 5.75078 3.3869 6.06214C3.07765 6.3735 2.85362 6.75913 2.73634 7.18201C2.32334 8.74801 2.31934 11.996 2.31934 11.996C2.31934 11.996 2.31534 15.26 2.72534 16.81C2.95534 17.667 3.63034 18.344 4.48834 18.575C6.07034 19.005 12.3183 19.012 12.3183 19.012C12.3183 19.012 18.5833 19.019 20.1493 18.609C20.5718 18.4943 20.9571 18.2714 21.267 17.9622C21.5769 17.653 21.8007 17.2682 21.9163 16.846C22.3303 15.281 22.3333 12.034 22.3333 12.034C22.3333 12.034 22.3533 8.76901 21.9263 7.20301ZM10.3293 15.005L10.3343 9.00501L15.5413 12.01L10.3293 15.005Z" fill="#111111"/>
</svg>
